<?xml version="1.0" encoding="UTF-8" standalone="no"?>
<!-- Created with Inkscape (http://www.inkscape.org/) -->

<svg
   width="74.33345mm"
   height="14.999997mm"
   viewBox="0 0 74.333454 14.999997"
   version="1.1"
   id="svg393"
   inkscape:version="1.2.2 (732a01da63, 2022-12-09)"
   sodipodi:docname="foskeyman_logo_long.svg"
   xml:space="preserve"
   inkscape:export-filename="fosanalysis_logo.png"
   inkscape:export-xdpi="1239.4696"
   inkscape:export-ydpi="1239.4696"
   xmlns:inkscape="http://www.inkscape.org/namespaces/inkscape"
   xmlns:sodipodi="http://sodipodi.sourceforge.net/DTD/sodipodi-0.dtd"
   xmlns="http://www.w3.org/2000/svg"
   xmlns:svg="http://www.w3.org/2000/svg"><sodipodi:namedview
     id="namedview395"
     pagecolor="#ffffff"
     bordercolor="#666666"
     borderopacity="1.0"
     inkscape:showpageshadow="2"
     inkscape:pageopacity="0.0"
     inkscape:pagecheckerboard="0"
     inkscape:deskcolor="#d1d1d1"
     inkscape:document-units="mm"
     showgrid="false"
     showguides="true"
     inkscape:zoom="1.9432257"
     inkscape:cx="110.89808"
     inkscape:cy="-43.227093"
     inkscape:window-width="1920"
     inkscape:window-height="1017"
     inkscape:window-x="1912"
     inkscape:window-y="-8"
     inkscape:window-maximized="1"
     inkscape:current-layer="layer1"><inkscape:grid
       type="xygrid"
       id="grid17620"
       originx="-72.915681"
       originy="-102.17469"
       spacingy="1"
       spacingx="1"
       units="mm"
       visible="false" /><sodipodi:guide
       position="5.9409259,14.999998"
       orientation="0,-1"
       id="guide2672"
       inkscape:locked="false" /><sodipodi:guide
       position="10.728442,4.9269791"
       orientation="0,-1"
       id="guide2674"
       inkscape:locked="false" /></sodipodi:namedview><defs
     id="defs390" /><g
     inkscape:label="Logo"
     inkscape:groupmode="layer"
     id="layer1"
     transform="translate(-72.915673,-102.17469)"><g
       id="g1"
       transform="translate(0.18123821,4.0000012)"><path
         d="m 84.347166,105.95607 0.01706,2.38853 -0.792562,6.5e-4 0.02547,-0.67101 -0.695319,-0.0187 -0.03375,-1.01641 0.734217,0.0188 -0.0284,-0.68146 c -1.416069,-0.40732 -1.151974,-2.48797 0.320951,-2.52859 1.475646,-0.0396 1.848839,2.02985 0.452337,2.50826 z m -1.064634,-1.20615 c 0.01416,0.79574 1.268795,0.80959 1.271472,-0.0201 0.0027,-0.82694 -1.286306,-0.81369 -1.271472,0.0201 z"
         p-id="1505"
         id="path1-2"
         style="opacity:1;fill:#fbc708;fill-opacity:1;stroke-width:0;stroke-dasharray:none"
         sodipodi:nodetypes="cccccccccccsss" /><path
         id="path893"
         style="fill:none;stroke:#fbc708;stroke-width:0.634889;stroke-linecap:round;stroke-linejoin:round;stroke-dasharray:none;stroke-opacity:1;paint-order:markers fill stroke"
         d="m 88.524384,108.63723 -13.362478,-3e-5 c -1.165336,0 -2.110027,0.94469 -2.110027,2.11002 0,1.16533 0.944691,2.11002 2.110027,2.11002 1.165336,0 2.11003,-0.94469 2.11003,-2.11002 v -2.67127"
         sodipodi:nodetypes="cssccc" /><path
         id="path9251-1"
         style="fill:#8e8e8e;fill-opacity:1;stroke:none;stroke-width:0.952332px;stroke-linecap:butt;stroke-linejoin:miter;stroke-opacity:1"
         d="m 78.67536,98.174687 c -1.055141,0.0072 -2.173318,0.496929 -2.250633,2.397573 v 6.23109 l 0.407348,0.70494 v 0.56733 h 0.879791 v -0.56733 l 0.407348,-0.70494 v -6.23109 c 0,-1.173247 0.377783,-1.276909 1.021152,-0.818385 l 0.5295,0.377355 c 0.290002,0.20661 0.516308,0.32143 0.720317,0.32143 0.520671,0 0.943388,-0.41332 0.943032,-0.924429 -2.81e-4,-0.400142 -0.188787,-0.654798 -0.499013,-0.81407 -0.31023,-0.159452 -0.565202,-0.237918 -0.832823,-0.318184 -0.3657,-0.109781 -0.773508,-0.223521 -1.326203,-0.219562 z"
         sodipodi:nodetypes="ccccccccssssszscc" /><path
         style="fill:#3ea639;fill-opacity:1;stroke:none;stroke-width:0.952332px;stroke-linecap:butt;stroke-linejoin:miter;stroke-opacity:1"
         d="m 76.306412,105.56679 v -2.98348 h -0.326283 v 2.37169 h -0.849048 v -0.29767 l 0.150489,-0.0893 v -2.92661 l 0.926378,-0.44744 0.09848,-0.0475 h 3.555264 l 0.0076,1.43694 h -1.641396 l -0.0076,2.98355 z"
         id="path9055"
         sodipodi:nodetypes="ccccccccccccccc" /><g
         id="g528"
         transform="matrix(3.5993713,0,0,3.5993713,-269.60854,-274.68775)"><path
           style="fill:#00305d;fill-opacity:1;stroke:#fbc708;stroke-width:0.0705556;stroke-linecap:butt;stroke-linejoin:miter;stroke-dasharray:none;stroke-opacity:1"
           d="m 99.420048,104.98002 c 0,-0.67925 0.858142,-0.705 1.205362,-0.50265 0.98872,0.0459 0.24341,1.13525 -0.17401,0.39518 -0.44847,-0.16726 -0.52986,-0.0466 -0.52986,0.062 0,0.28357 1.00417,0.18837 0.98371,0.88594 -0.0199,0.67695 -1.195322,0.7554 -1.442251,0.72791 l -0.454797,-0.0506 c 0,0 0.125623,-0.015 0.454797,-0.068 0.329179,-0.053 0.882671,-0.11136 0.882671,-0.6093 0,-0.39506 -0.925622,-0.16121 -0.925622,-0.84047 z"
           id="path17551"
           sodipodi:nodetypes="zccsssczszz" /><circle
           style="fill:#00305d;fill-opacity:1;stroke:#fbc708;stroke-width:0.0705556;stroke-linecap:round;stroke-linejoin:round;stroke-dasharray:none;stroke-opacity:1;paint-order:markers fill stroke"
           id="path17605"
           cx="100.87754"
           cy="104.51558"
           r="0.12298991" /><circle
           style="fill:#00305d;fill-opacity:1;stroke:#fbc708;stroke-width:0.0705556;stroke-linecap:round;stroke-linejoin:round;stroke-dasharray:none;stroke-opacity:1;paint-order:markers fill stroke"
           id="circle17607"
           cx="100.70567"
           cy="104.57966"
           r="0.12298991" /><path
           style="fill:#ff0000;fill-opacity:1;stroke:none;stroke-width:0.452703px;stroke-linecap:butt;stroke-linejoin:miter;stroke-opacity:1"
           d="m 101.0752,105.19886 c 0.0318,0.0455 0.0395,0.0904 0.0732,0.26117 0.0571,-0.14389 0.0301,-0.23461 -0.002,-0.26441 0.0331,0.0302 0.11676,0.0411 0.25478,-0.0116 -0.17303,-0.0188 -0.2109,-0.0307 -0.25797,-0.0583 -0.0385,-0.0226 -0.0753,-0.0655 -0.17661,-0.15788 -0.0491,0.002 -0.069,0.0224 -0.0669,0.0678 0.10332,0.0925 0.15025,0.12634 0.176,0.16316 z"
           id="path17609"
           sodipodi:nodetypes="scccsccs" /></g><ellipse
         style="fill:#ffffff;fill-opacity:1;stroke:none;stroke-width:0.60594;stroke-linecap:round;stroke-linejoin:round;stroke-dasharray:none;stroke-opacity:1;paint-order:markers fill stroke"
         id="ellipse20422"
         cx="80.391212"
         cy="99.527634"
         rx="0.56096762"
         ry="0.55065453" /><path
         style="opacity:1;fill:#3ea639;fill-opacity:1;fill-rule:nonzero;stroke:#1e541e;stroke-width:0.256;stroke-linecap:round;stroke-linejoin:round;stroke-miterlimit:4;stroke-dasharray:none;stroke-opacity:1"
         d="m 92.331678,128.14912 c 0.53936,-0.20049 0.82092,-0.58609 0.82092,-1.25006 0,-0.66391 -0.55948,-1.24899 -1.25857,-1.25014 -0.73772,-0.001 -1.29423,0.58382 -1.28533,1.25014 0.009,0.66638 0.32668,1.10972 0.83533,1.27 l -0.01071,0.71607 -0.631384,-0.003 0.0012,0.95519 0.631373,0.0164 -0.005,0.63947 c -1.90218,-0.0559 -3.319044,-1.84252 -3.319044,-3.59433 0,-2.07483 1.66719,-3.75685 3.75677,-3.75685 2.08957,0 3.78352,1.68202 3.78352,3.75685 0,1.77906 -1.532328,3.57321 -3.304654,3.60056 z"
         id="path31"
         inkscape:connector-curvature="0"
         sodipodi:nodetypes="czssccccccssscc"
         inkscape:export-filename="path3068.png"
         inkscape:export-xdpi="300"
         inkscape:export-ydpi="300"
         transform="translate(-7.9666312,-22.245485)" /></g><g
       aria-label="KeyMan"
       id="text300"
       style="font-weight:bold;font-size:13.4056px;line-height:1.25;font-family:'Open Sans';-inkscape-font-specification:'Open Sans, Bold';text-align:center;text-anchor:middle;fill:#00305d;stroke-width:0.264583"><path
         d="m 103.43218,112.07671 h -2.30408 l -2.507008,-4.03215 -0.857487,0.6153 v 3.41685 h -2.029168 v -9.56981 h 2.029168 v 4.37907 l 0.798576,-1.12586 2.592099,-3.25321 h 2.25172 l -3.33831,4.23507 z"
         id="path8484" /><path
         d="m 107.51016,106.04158 q -0.63494,0 -0.99495,0.40583 -0.36001,0.39929 -0.41238,1.13895 h 2.80156 q -0.0131,-0.73966 -0.38619,-1.13895 -0.37311,-0.40583 -1.00804,-0.40583 z m 0.28146,6.16605 q -1.76734,0 -2.76228,-0.97531 -0.99495,-0.97531 -0.99495,-2.76229 0,-1.83934 0.9164,-2.84083 0.92294,-1.00804 2.54628,-1.00804 1.55133,0 2.41536,0.88367 0.86403,0.88367 0.86403,2.44155 v 0.96876 h -4.71945 q 0.0327,0.85094 0.50402,1.32878 0.47129,0.47783 1.32223,0.47783 0.66112,0 1.25023,-0.13746 0.58911,-0.13746 1.23059,-0.43856 v 1.54479 q -0.52365,0.26183 -1.11931,0.38619 -0.59566,0.13092 -1.45315,0.13092 z"
         id="path8486" /><path
         d="m 111.08411,104.75862 h 2.18627 l 1.38114,4.11724 q 0.17673,0.53675 0.24219,1.26987 h 0.0393 q 0.072,-0.67421 0.28147,-1.26987 l 1.35496,-4.11724 h 2.14044 l -3.09611,8.25413 q -0.42547,1.1455 -1.2175,1.71497 -0.78549,0.56948 -1.83935,0.56948 -0.51711,0 -1.01458,-0.11128 v -1.58406 q 0.36001,0.0851 0.78548,0.0851 0.53021,0 0.92295,-0.32729 0.39929,-0.32074 0.62184,-0.97531 l 0.11782,-0.36001 z"
         id="path8488" /><path
         d="m 123.96605,112.07671 -2.30408,-7.50792 h -0.0589 q 0.12436,2.291 0.12436,3.05685 v 4.45107 h -1.81316 v -9.56981 h 2.76229 l 2.26481,7.31809 h 0.0393 l 2.40227,-7.31809 h 2.76229 v 9.56981 h -1.89171 v -4.52962 q 0,-0.32074 0.007,-0.73967 0.0131,-0.41892 0.0916,-2.22554 h -0.0589 l -2.46773,7.49483 z"
         id="path8490" /><path
         d="m 137.04437,112.07671 -0.3862,-0.99494 h -0.0524 q -0.50402,0.63493 -1.04077,0.88367 -0.5302,0.24219 -1.38769,0.24219 -1.05386,0 -1.66261,-0.60221 -0.6022,-0.6022 -0.6022,-1.71497 0,-1.16514 0.81167,-1.71498 0.81821,-0.55638 2.46118,-0.61529 l 1.26987,-0.0393 v -0.32074 q 0,-1.11276 -1.13896,-1.11276 -0.87712,0 -2.06189,0.5302 l -0.66112,-1.34842 q 1.26332,-0.66111 2.80156,-0.66111 1.47279,0 2.25827,0.64148 0.78548,0.64147 0.78548,1.95061 v 4.87655 z m -0.58911,-3.39067 -0.7724,0.0262 q -0.87058,0.0262 -1.29605,0.3142 -0.42547,0.28801 -0.42547,0.87712 0,0.8444 0.96877,0.8444 0.69384,0 1.10622,-0.39929 0.41893,-0.39929 0.41893,-1.06041 z"
         id="path8492" /><path
         d="m 147.24912,112.07671 h -1.99644 v -4.27434 q 0,-0.79203 -0.28146,-1.18477 -0.28147,-0.39929 -0.89677,-0.39929 -0.83785,0 -1.21095,0.56293 -0.37311,0.55638 -0.37311,1.85243 v 3.44304 h -1.99643 v -7.31809 h 1.52514 l 0.26838,0.93603 h 0.11127 q 0.33384,-0.5302 0.9164,-0.79857 0.58912,-0.27492 1.33533,-0.27492 1.27641,0 1.93752,0.69384 0.66112,0.6873 0.66112,1.9899 z"
         id="path8494" /></g></g></svg>
