<?xml version="1.0" encoding="UTF-8" standalone="no"?>
<!-- Created with Inkscape (http://www.inkscape.org/) -->

<svg
   width="23mm"
   height="23mm"
   viewBox="0 0 23.000001 23"
   version="1.1"
   id="svg393"
   inkscape:version="1.3.2 (091e20e, 2023-11-25, custom)"
   sodipodi:docname="fos.svg"
   xml:space="preserve"
   inkscape:export-filename="fosanalysis_logo.png"
   inkscape:export-xdpi="1239.4696"
   inkscape:export-ydpi="1239.4696"
   xmlns:inkscape="http://www.inkscape.org/namespaces/inkscape"
   xmlns:sodipodi="http://sodipodi.sourceforge.net/DTD/sodipodi-0.dtd"
   xmlns="http://www.w3.org/2000/svg"
   xmlns:svg="http://www.w3.org/2000/svg"><sodipodi:namedview
     id="namedview395"
     pagecolor="#ffffff"
     bordercolor="#666666"
     borderopacity="1.0"
     inkscape:showpageshadow="2"
     inkscape:pageopacity="0.0"
     inkscape:pagecheckerboard="0"
     inkscape:deskcolor="#d1d1d1"
     inkscape:document-units="mm"
     showgrid="false"
     showguides="true"
     inkscape:zoom="5.4962724"
     inkscape:cx="59.312926"
     inkscape:cy="53.854682"
     inkscape:window-width="1440"
     inkscape:window-height="830"
     inkscape:window-x="-6"
     inkscape:window-y="-6"
     inkscape:window-maximized="1"
     inkscape:current-layer="layer1"><inkscape:grid
       type="xygrid"
       id="grid17620"
       originx="-72.734436"
       originy="-98.17469"
       spacingy="1"
       spacingx="1"
       units="mm"
       visible="false" /></sodipodi:namedview><defs
     id="defs390" /><g
     inkscape:label="Logo"
     inkscape:groupmode="layer"
     id="layer1"
     transform="translate(-72.734434,-98.174687)"><g
       id="g1"
       transform="translate(0.18123821,4.0000012)"><path
         d="m 84.347166,105.95607 0.01706,2.38853 -0.792562,6.5e-4 0.02547,-0.67101 -0.695319,-0.0187 -0.03375,-1.01641 0.734217,0.0188 -0.0284,-0.68146 c -1.416069,-0.40732 -1.151974,-2.48797 0.320951,-2.52859 1.475646,-0.0396 1.848839,2.02985 0.452337,2.50826 z m -1.064634,-1.20615 c 0.01416,0.79574 1.268795,0.80959 1.271472,-0.0201 0.0027,-0.82694 -1.286306,-0.81369 -1.271472,0.0201 z"
         p-id="1505"
         id="path1-2"
         style="opacity:1;fill:#fbc708;fill-opacity:1;stroke-width:0;stroke-dasharray:none"
         sodipodi:nodetypes="cccccccccccsss" /><path
         id="path893"
         style="fill:none;stroke:#fbc708;stroke-width:0.634889;stroke-linecap:round;stroke-linejoin:round;stroke-dasharray:none;stroke-opacity:1;paint-order:markers fill stroke"
         d="m 88.524384,108.63723 -13.362478,-3e-5 c -1.165336,0 -2.110027,0.94469 -2.110027,2.11002 0,1.16533 0.944691,2.11002 2.110027,2.11002 1.165336,0 2.11003,-0.94469 2.11003,-2.11002 v -2.67127"
         sodipodi:nodetypes="cssccc" /><path
         id="path9251-1"
         style="fill:#8e8e8e;fill-opacity:1;stroke:none;stroke-width:0.952332px;stroke-linecap:butt;stroke-linejoin:miter;stroke-opacity:1"
         d="m 78.67536,98.174687 c -1.055141,0.0072 -2.173318,0.496929 -2.250633,2.397573 v 6.23109 l 0.407348,0.70494 v 0.56733 h 0.879791 v -0.56733 l 0.407348,-0.70494 v -6.23109 c 0,-1.173247 0.377783,-1.276909 1.021152,-0.818385 l 0.5295,0.377355 c 0.290002,0.20661 0.516308,0.32143 0.720317,0.32143 0.520671,0 0.943388,-0.41332 0.943032,-0.924429 -2.81e-4,-0.400142 -0.188787,-0.654798 -0.499013,-0.81407 -0.31023,-0.159452 -0.565202,-0.237918 -0.832823,-0.318184 -0.3657,-0.109781 -0.773508,-0.223521 -1.326203,-0.219562 z"
         sodipodi:nodetypes="ccccccccssssszscc" /><path
         style="fill:#3ea639;fill-opacity:1;stroke:none;stroke-width:0.952332px;stroke-linecap:butt;stroke-linejoin:miter;stroke-opacity:1"
         d="m 76.306412,105.56679 v -2.98348 h -0.326283 v 2.37169 h -0.849048 v -0.29767 l 0.150489,-0.0893 v -2.92661 l 0.926378,-0.44744 0.09848,-0.0475 h 3.555264 l 0.0076,1.43694 h -1.641396 l -0.0076,2.98355 z"
         id="path9055"
         sodipodi:nodetypes="ccccccccccccccc" /><g
         id="g528"
         transform="matrix(3.5993713,0,0,3.5993713,-269.60854,-274.68775)"><path
           style="fill:#00305d;fill-opacity:1;stroke:#fbc708;stroke-width:0.0705556;stroke-linecap:butt;stroke-linejoin:miter;stroke-dasharray:none;stroke-opacity:1"
           d="m 99.420048,104.98002 c 0,-0.67925 0.858142,-0.705 1.205362,-0.50265 0.98872,0.0459 0.24341,1.13525 -0.17401,0.39518 -0.44847,-0.16726 -0.52986,-0.0466 -0.52986,0.062 0,0.28357 1.00417,0.18837 0.98371,0.88594 -0.0199,0.67695 -1.195322,0.7554 -1.442251,0.72791 l -0.454797,-0.0506 c 0,0 0.125623,-0.015 0.454797,-0.068 0.329179,-0.053 0.882671,-0.11136 0.882671,-0.6093 0,-0.39506 -0.925622,-0.16121 -0.925622,-0.84047 z"
           id="path17551"
           sodipodi:nodetypes="zccsssczszz" /><circle
           style="fill:#00305d;fill-opacity:1;stroke:#fbc708;stroke-width:0.0705556;stroke-linecap:round;stroke-linejoin:round;stroke-dasharray:none;stroke-opacity:1;paint-order:markers fill stroke"
           id="path17605"
           cx="100.87754"
           cy="104.51558"
           r="0.12298991" /><circle
           style="fill:#00305d;fill-opacity:1;stroke:#fbc708;stroke-width:0.0705556;stroke-linecap:round;stroke-linejoin:round;stroke-dasharray:none;stroke-opacity:1;paint-order:markers fill stroke"
           id="circle17607"
           cx="100.70567"
           cy="104.57966"
           r="0.12298991" /><path
           style="fill:#ff0000;fill-opacity:1;stroke:none;stroke-width:0.452703px;stroke-linecap:butt;stroke-linejoin:miter;stroke-opacity:1"
           d="m 101.0752,105.19886 c 0.0318,0.0455 0.0395,0.0904 0.0732,0.26117 0.0571,-0.14389 0.0301,-0.23461 -0.002,-0.26441 0.0331,0.0302 0.11676,0.0411 0.25478,-0.0116 -0.17303,-0.0188 -0.2109,-0.0307 -0.25797,-0.0583 -0.0385,-0.0226 -0.0753,-0.0655 -0.17661,-0.15788 -0.0491,0.002 -0.069,0.0224 -0.0669,0.0678 0.10332,0.0925 0.15025,0.12634 0.176,0.16316 z"
           id="path17609"
           sodipodi:nodetypes="scccsccs" /></g><ellipse
         style="fill:#ffffff;fill-opacity:1;stroke:none;stroke-width:0.60594;stroke-linecap:round;stroke-linejoin:round;stroke-dasharray:none;stroke-opacity:1;paint-order:markers fill stroke"
         id="ellipse20422"
         cx="80.391212"
         cy="99.527634"
         rx="0.56096762"
         ry="0.55065453" /><path
         style="opacity:1;fill:#3ea639;fill-opacity:1;fill-rule:nonzero;stroke:#1e541e;stroke-width:0.256;stroke-linecap:round;stroke-linejoin:round;stroke-miterlimit:4;stroke-dasharray:none;stroke-opacity:1"
         d="m 92.331678,128.14912 c 0.53936,-0.20049 0.82092,-0.58609 0.82092,-1.25006 0,-0.66391 -0.55948,-1.24899 -1.25857,-1.25014 -0.73772,-0.001 -1.29423,0.58382 -1.28533,1.25014 0.009,0.66638 0.32668,1.10972 0.83533,1.27 l -0.01071,0.71607 -0.631384,-0.003 0.0012,0.95519 0.631373,0.0164 -0.005,0.63947 c -1.90218,-0.0559 -3.319044,-1.84252 -3.319044,-3.59433 0,-2.07483 1.66719,-3.75685 3.75677,-3.75685 2.08957,0 3.78352,1.68202 3.78352,3.75685 0,1.77906 -1.532328,3.57321 -3.304654,3.60056 z"
         id="path31"
         inkscape:connector-curvature="0"
         sodipodi:nodetypes="czssccccccssscc"
         inkscape:export-filename="path3068.png"
         inkscape:export-xdpi="300"
         inkscape:export-ydpi="300"
         transform="translate(-7.9666312,-22.245485)" /></g></g></svg>
